<svg width="48" height="48" viewBox="0 0 48 48" fill="none" xmlns="http://www.w3.org/2000/svg">
<path d="M35.1673 31.0161C24.2601 31.0161 17.2843 24.1815 17.2843 13.254C17.2843 10.996 17.8286 7.77016 18.5544 6.09677C18.7359 5.63306 18.7762 5.35081 18.7762 5.14919C18.7762 4.60484 18.373 4 17.5867 4C17.3649 4 16.881 4.06048 16.4375 4.22177C8.97782 7.20565 3.97782 15.2298 3.97782 23.6774C3.97782 35.5323 13.0101 44 24.8246 44C33.5141 44 41.0343 38.7379 43.5343 32.1653C43.7157 31.7016 43.756 31.2177 43.756 31.0363C43.756 30.2903 43.131 29.7863 42.5665 29.7863C42.3044 29.7863 42.0827 29.8468 41.6996 29.9677C40.1472 30.4718 37.6472 31.0161 35.1673 31.0161Z" fill="black"/>
</svg>
