<svg width="48" height="48" viewBox="0 0 48 48" fill="none" xmlns="http://www.w3.org/2000/svg">
<path d="M25.8802 1.92442C25.8802 0.884793 24.9954 0 23.9336 0C22.894 0 22.0092 0.884793 22.0092 1.92442V6.56958C22.0092 7.60922 22.894 8.49401 23.9336 8.49401C24.9954 8.49401 25.8802 7.60922 25.8802 6.56958V1.92442ZM34.8608 10.3521C34.1309 11.1041 34.1309 12.3429 34.8608 13.0728C35.6129 13.8249 36.8516 13.847 37.6037 13.0728L40.8995 9.77696C41.6516 9.02488 41.6516 7.78618 40.8995 7.0341C40.1696 6.30415 38.9309 6.30415 38.2009 7.0341L34.8608 10.3521ZM10.2636 13.0728C11.0157 13.8249 12.2544 13.8249 12.9843 13.0728C13.7364 12.365 13.7364 11.082 13.0065 10.3521L9.7106 7.0341C9.00277 6.32627 7.74194 6.30415 6.98986 7.0341C6.25991 7.76406 6.25991 9.02488 6.96774 9.75484L10.2636 13.0728ZM23.9336 12.7189C17.7622 12.7189 12.6525 17.8286 12.6525 24C12.6525 30.1714 17.7622 35.3032 23.9336 35.3032C30.0829 35.3032 35.1926 30.1714 35.1926 24C35.1926 17.8286 30.0829 12.7189 23.9336 12.7189ZM45.9429 25.9244C47.0046 25.9244 47.8894 25.0396 47.8894 24C47.8894 22.9604 47.0046 22.0756 45.9429 22.0756H41.3198C40.2802 22.0756 39.3954 22.9604 39.3954 24C39.3954 25.0396 40.2802 25.9244 41.3198 25.9244H45.9429ZM1.92442 22.0756C0.884793 22.0756 0 22.9604 0 24C0 25.0396 0.884793 25.9244 1.92442 25.9244H6.54747C7.60922 25.9244 8.49401 25.0396 8.49401 24C8.49401 22.9604 7.60922 22.0756 6.54747 22.0756H1.92442ZM37.5816 34.9493C36.8516 34.2194 35.6129 34.2194 34.8608 34.9493C34.1309 35.6793 34.1309 36.918 34.8608 37.67L38.2009 40.988C38.9309 41.718 40.1696 41.6959 40.8995 40.9659C41.6516 40.2359 41.6516 38.9972 40.8995 38.2452L37.5816 34.9493ZM6.96774 38.223C6.23779 38.953 6.23779 40.2138 6.94562 40.9438C7.67558 41.6737 8.93641 41.6959 9.68848 40.9659L12.9843 37.67C13.7364 36.9401 13.7364 35.7014 13.0065 34.9493C12.2765 34.2194 11.0157 34.2194 10.2636 34.9493L6.96774 38.223ZM25.8802 41.4304C25.8802 40.3908 24.9954 39.506 23.9336 39.506C22.894 39.506 22.0092 40.3908 22.0092 41.4304V46.0756C22.0092 47.1152 22.894 48 23.9336 48C24.9954 48 25.8802 47.1152 25.8802 46.0756V41.4304Z" fill="black"/>
</svg>
